#N canvas 0 0 1920 966 12;
#N canvas 4 41 1920 989 wah_wah 0;
#X obj 926 510 outlet~;
#X obj 901 158 inlet~;
#X obj 1077 177 inlet;
#X obj 924 310 bp~ 1000 3;
#X obj 925 417 *~ 1.5;
#X connect 1 0 3 0;
#X connect 2 0 3 1;
#X connect 3 0 4 0;
#X connect 4 0 0 0;
#X restore 31 461 pd wah_wah;
#X obj 28 635 dac~ 1 2;
#N canvas 4 52 1920 989 overdrive 0;
#X obj 591 269 inlet~;
#X obj 590 387 expr~ tanh($v1);
#X obj 589 451 *~ 0.5;
#X obj 615 680 outlet~;
#X obj 628 496 receive activar_overdrive;
#X obj 589 565 *~;
#X obj 771 578 *~;
#X obj 852 507 receive activar_limpio_overdrive;
#X obj 597 340 *~;
#X obj 700 276 receive drive_overdrive;
#X connect 0 0 6 0;
#X connect 0 0 8 0;
#X connect 1 0 2 0;
#X connect 2 0 5 0;
#X connect 4 0 5 1;
#X connect 5 0 3 0;
#X connect 6 0 3 0;
#X connect 7 0 6 1;
#X connect 8 0 1 0;
#X connect 9 0 8 1;
#X restore 32 569 pd overdrive;
#X obj 199 820 tgl 50 0 empty empty empty 0 -10 0 12 #fcfcfc #000000 #000000 0 1;
#X obj 200 877 == 0;
#X obj 239 876 send activar_overdrive;
#X obj 201 900 send activar_limpio_overdrive;
#N canvas 0 0 1920 989 delay_mistico 0;
#X obj 517 159 inlet~;
#X obj 571 263 +~;
#X obj 600 314 delwrite~ eco 2000;
#X obj 452 162 *~ 0.6;
#X obj 412 378 *~ 0.5;
#X obj 456 614 outlet~;
#X obj 561 495 *~;
#X obj 403 540 *~;
#X obj 469 400 receive activar_delay;
#X obj 456 468 line~;
#X obj 469 432 \$1 10;
#X obj 712 397 receive activar_limpio_delay;
#X obj 681 491 line~;
#X obj 710 449 \$1 10;
#X obj 288 188 delread~ eco;
#X obj 430 55 receive tiempodedelay_delay;
#X msg 401 96 \$1 100;
#X obj 344 148 line;
#X connect 0 0 1 0;
#X connect 0 0 6 0;
#X connect 1 0 2 0;
#X connect 3 0 1 1;
#X connect 4 0 7 0;
#X connect 6 0 5 0;
#X connect 7 0 5 0;
#X connect 8 0 10 0;
#X connect 9 0 7 1;
#X connect 10 0 9 0;
#X connect 11 0 13 0;
#X connect 12 0 6 1;
#X connect 13 0 12 0;
#X connect 14 0 3 0;
#X connect 14 0 4 0;
#X connect 15 0 16 0;
#X connect 16 0 17 0;
#X connect 17 0 14 0;
#X restore 32 529 pd delay_mistico;
#X obj 417 817 tgl 50 0 empty empty empty 0 -10 0 12 #fcfcfc #000000 #000000 0 1;
#X obj 416 877 == 0;
#X obj 460 876 send activar_delay;
#X obj 416 902 send activar_limpio_delay;
#X obj 136 330 receive boca_apertura;
#X obj 136 352 * 1600;
#X obj 136 376 + 400;
#X floatatom 593 171 5 0 0 0 - - - 0;
#X floatatom 942 168 5 0 0 0 - - - 0;
#X floatatom 841 163 5 0 0 0 - - - 0;
#X obj 574 295 send boca_apertura;
#X obj 859 571 1;
#X obj 890 572 4;
#X obj 920 571 8;
#X obj 950 571 12;
#X obj 855 606 send drive_overdrive;
#X obj 1023 610 send tiempodedelay_delay;
#X msg 1025 572 150;
#X msg 1062 572 300;
#X msg 1098 572 500;
#X msg 1135 572 800;
#X obj 852 209 bng 19 250 50 0 empty empty empty 0 -10 0 12 #fcfcfc #000000 #000000;
#X obj 842 265 f 0;
#X obj 848 336 + 1;
#X obj 849 392 % 4;
#X floatatom 793 458 5 0 0 0 - - - 0;
#X obj 928 231 bng 19 250 50 0 empty empty empty 0 -10 0 12 #fcfcfc #000000 #000000;
#X obj 918 287 f 0;
#X floatatom 852 662 5 0 0 0 - - - 0;
#X obj 921 344 + 1;
#X obj 925 414 % 4;
#X floatatom 972 469 5 0 0 0 - - - 0;
#X floatatom 1023 657 5 0 0 0 - - - 0;
#X floatatom 337 362 5 0 0 0 - - - 0;
#X obj 349 403 bng 19 250 50 0 empty empty empty 0 -10 0 12 #fcfcfc #000000 #000000;
#X obj 343 468 f 0;
#X obj 342 516 + 1;
#X obj 346 586 % 3;
#X floatatom 342 622 5 0 0 0 - - - 0;
#X obj 328 315 receive browsUp;
#X obj 1045 175 send browsUp;
#X obj 346 726 route 0 1 2;
#X obj 322 771 bng 19 250 50 0 empty empty empty 0 -10 0 12 #fcfcfc #000000 #000000;
#X obj 408 782 bng 19 250 50 0 empty empty empty 0 -10 0 12 #fcfcfc #000000 #000000;
#X obj 856 542 select 0 1 2 3;
#X obj 1024 539 select 0 1 2 3;
#X floatatom 312 812 5 0 0 0 - - - 0;
#X floatatom 478 786 5 0 0 0 - - - 0;
#X msg 256 757 0;
#X obj 770 7 netreceive -u -b 9000;
#X obj 770 41 oscparse;
#X obj 769 77 list trim;
#X obj 769 111 route jawOpen blinkLeft blinkRight browsUp;
#X msg 178 156 start;
#X obj 232 140 openpanel;
#X obj 227 101 bng 19 250 50 0 empty empty empty 0 -10 0 12 #fcfcfc #000000 #000000;
#X msg 262 179 open \$1;
#X obj 231 208 readsf~;
#X msg 117 175 stop;
#X obj 36 395 *~ 0.7;
#X floatatom 581 248 5 0 0 0 - - - 0;
#X obj 578 212 expr 1- $f1;
#X obj 681 158 * 1.12;
#X connect 0 0 7 0;
#X connect 2 0 1 0;
#X connect 3 0 4 0;
#X connect 3 0 5 0;
#X connect 4 0 6 0;
#X connect 7 0 2 0;
#X connect 8 0 9 0;
#X connect 8 0 10 0;
#X connect 9 0 11 0;
#X connect 12 0 13 0;
#X connect 13 0 14 0;
#X connect 14 0 0 1;
#X connect 15 0 69 0;
#X connect 16 0 34 0;
#X connect 17 0 29 0;
#X connect 19 0 23 0;
#X connect 19 0 36 0;
#X connect 20 0 23 0;
#X connect 20 0 36 0;
#X connect 21 0 23 0;
#X connect 21 0 36 0;
#X connect 22 0 23 0;
#X connect 22 0 36 0;
#X connect 25 0 24 0;
#X connect 25 0 40 0;
#X connect 26 0 24 0;
#X connect 26 0 40 0;
#X connect 27 0 24 0;
#X connect 27 0 40 0;
#X connect 28 0 24 0;
#X connect 28 0 40 0;
#X connect 29 0 30 0;
#X connect 30 0 31 0;
#X connect 31 0 32 0;
#X connect 31 0 30 1;
#X connect 32 0 33 0;
#X connect 32 0 52 0;
#X connect 34 0 35 0;
#X connect 35 0 37 0;
#X connect 37 0 38 0;
#X connect 37 0 35 1;
#X connect 38 0 39 0;
#X connect 39 0 53 0;
#X connect 41 0 42 0;
#X connect 42 0 43 0;
#X connect 43 0 44 0;
#X connect 44 0 43 1;
#X connect 44 0 45 0;
#X connect 45 0 46 0;
#X connect 46 0 49 0;
#X connect 47 0 41 0;
#X connect 49 0 56 0;
#X connect 49 1 50 0;
#X connect 49 2 51 0;
#X connect 50 0 3 0;
#X connect 50 0 54 0;
#X connect 51 0 8 0;
#X connect 51 0 55 0;
#X connect 52 0 19 0;
#X connect 52 1 20 0;
#X connect 52 2 21 0;
#X connect 52 3 22 0;
#X connect 53 0 25 0;
#X connect 53 1 26 0;
#X connect 53 2 27 0;
#X connect 53 3 28 0;
#X connect 54 0 8 0;
#X connect 55 0 3 0;
#X connect 56 0 3 0;
#X connect 56 0 8 0;
#X connect 57 0 58 0;
#X connect 58 0 59 0;
#X connect 59 0 60 0;
#X connect 60 0 70 0;
#X connect 60 1 17 0;
#X connect 60 2 16 0;
#X connect 60 3 48 0;
#X connect 61 0 65 0;
#X connect 62 0 64 0;
#X connect 63 0 62 0;
#X connect 64 0 65 0;
#X connect 65 0 67 0;
#X connect 66 0 65 0;
#X connect 67 0 0 0;
#X connect 68 0 18 0;
#X connect 69 0 68 0;
#X connect 70 0 15 0;
